<svg xmlns="http://www.w3.org/2000/svg">
  <symbol id="svg-i0"  viewBox="0 0 68 58">
    <title>图标</title>
    <g id="图层_2" data-name="图层 2">
    	<g id="图层_1-2" data-name="图层 1">
    		<path class="cls-1" style="fill:#239aff;opacity:0.42;" d="M59.59,48a7.36,7.36,0,0,0,4.56-1.57v2.91a7.45,7.45,0,0,1-7.46,7.45H11.27a7.45,7.45,0,0,1-7.46-7.45V46.47A7.39,7.39,0,0,0,8.37,48"/>
    		<path class="cls-2" style="fill:#239aff;" d="M59.95,0H6.32A6.32,6.32,0,0,0,0,6.32V40.95a8,8,0,0,0,3,6.26v4.15A6.64,6.64,0,0,0,9.64,58H56.58A8.45,8.45,0,0,0,65,49.55V47.21a8,8,0,0,0,3-6.26V8.05A8.05,8.05,0,0,0,59.95,0ZM63,49.55A6.44,6.44,0,0,1,56.59,56H11.45A6.45,6.45,0,0,1,5,49.55V48.4A8,8,0,0,0,8,49H60a8,8,0,0,0,3-.6ZM60,47H8a6,6,0,0,1-6-6V8A6,6,0,0,1,8,2H60a6,6,0,0,1,6,6V41A6,6,0,0,1,60,47Z"/>
    		<path class="cls-1" style="fill:#239aff;opacity:0.42;" d="M45.48,27.46h-10V23h10a1.5,1.5,0,0,0,0-3H37.74l5.74-5.44a1.5,1.5,0,1,0-2.06-2.18L34,19.4l-7.44-7.05a1.5,1.5,0,1,0-2.06,2.18L30.22,20H22.48a1.5,1.5,0,0,0,0,3h10v4.49h-10a1.5,1.5,0,1,0,0,3h10V36.2a1.5,1.5,0,1,0,3,0V30.46h10a1.5,1.5,0,0,0,0-3Z"/>
    	</g>
    </g>
  </symbol>
</svg>
