<svg xmlns="http://www.w3.org/2000/svg">
  <symbol id="svg-contact1"  viewBox="0 0 43 36">
    <title>图标</title>
      <path style="fill: #117d90;fill-rule: evenodd;" d="M39.112,24.919 L38.098,25.930 L29.916,34.082 L28.052,35.940 L28.050,35.998 L0.000,35.158 L4.093,26.614 L1.839,24.401 C1.827,24.395 1.820,24.383 1.814,24.376 L1.442,24.011 C1.436,24.005 1.423,23.993 1.417,23.987 C0.542,23.030 0.014,21.769 0.014,20.385 C0.014,19.526 0.219,18.716 0.585,17.997 C0.809,17.552 1.094,17.138 1.429,16.772 C1.436,16.766 1.436,16.760 1.442,16.760 L1.814,16.394 C1.814,16.388 1.820,16.388 1.827,16.382 C2.795,15.517 4.092,14.993 5.507,14.993 C6.928,14.993 8.225,15.523 9.199,16.394 C9.212,16.401 9.218,16.413 9.230,16.419 L9.540,16.730 C9.553,16.736 9.559,16.748 9.571,16.760 C10.049,17.278 10.428,17.887 10.676,18.558 C10.881,19.130 10.999,19.740 10.999,20.385 C10.999,21.781 10.459,23.054 9.571,24.011 L9.199,24.376 L6.196,27.326 L5.768,27.746 L3.129,33.254 L26.024,33.943 L18.050,25.998 C18.016,25.981 17.999,25.947 17.982,25.930 L16.968,24.919 C16.951,24.903 16.917,24.869 16.900,24.852 C14.517,22.208 13.080,18.721 13.080,14.898 C13.080,12.523 13.638,10.283 14.635,8.295 C15.243,7.066 16.021,5.920 16.934,4.910 C16.951,4.893 16.951,4.876 16.968,4.876 L17.982,3.865 C17.982,3.849 17.999,3.849 18.016,3.832 C20.653,1.440 24.186,-0.008 28.040,-0.008 C31.911,-0.008 35.444,1.457 38.098,3.865 C38.131,3.882 38.148,3.916 38.182,3.933 L39.027,4.792 C39.061,4.809 39.078,4.842 39.112,4.876 C40.413,6.308 41.445,7.992 42.121,9.845 C42.678,11.428 43.000,13.112 43.000,14.898 C43.000,18.755 41.529,22.275 39.112,24.919 ZM32.553,11.900 C31.590,10.434 29.916,9.474 28.040,9.474 C26.586,9.474 25.284,10.030 24.321,10.957 C23.273,11.933 22.614,13.348 22.614,14.898 C22.614,17.879 25.031,20.305 28.040,20.305 C28.665,20.305 29.274,20.204 29.832,20.001 C29.865,20.001 29.882,19.985 29.916,19.968 C31.978,19.210 33.466,17.222 33.466,14.898 C33.466,13.786 33.128,12.759 32.553,11.900 Z" class="cls-1"/>
  </symbol>
  
</svg>
